<?xml version="1.0" standalone="no"?><!DOCTYPE svg PUBLIC "-//W3C//DTD SVG 1.1//EN" "http://www.w3.org/Graphics/SVG/1.1/DTD/svg11.dtd"><svg t="1679903917978" class="icon" viewBox="0 0 1024 1024" version="1.1" xmlns="http://www.w3.org/2000/svg" p-id="5310" xmlns:xlink="http://www.w3.org/1999/xlink" width="200" height="200"><path d="M993.13599 317.60254s42.422857 133.932698-95.248254 177.005714c0 3.738413 0.650159 7.314286 0.650159 11.215238a427.08927 427.08927 0 0 1-5.36381 66.64127 167.870984 167.870984 0 0 1 98.661587-28.769524s26.493968 151.324444-140.596825 163.189841c-0.487619-1.950476-0.975238-4.388571-1.462857-6.664127a397.181968 397.181968 0 0 1-33.970794 52.012699c34.295873-7.801905 77.368889 0.812698 127.106032 47.299047 0 0-79.644444 121.579683-202.036825 26.168889a369.90781 369.90781 0 0 1-99.149207 52.012699v-48.761905c125.480635-49.899683 207.238095-178.793651 207.238095-323.128889a349.460317 349.460317 0 0 0-90.209523-242.184127c-42.422857-6.013968-124.993016-43.235556-92.647619-182.044444 0 0 111.339683 14.466032 105.975873 144.335238a387.348317 387.348317 0 0 1 56.563809 61.44c-8.614603-47.299048 3.250794-108.576508 92.32254-147.260953 0 0 69.241905 125.643175-61.44 197.810794a342.95873 342.95873 0 0 1 21.130159 52.987937c14.953651-32.507937 47.461587-61.765079 112.47746-73.305397zM576.709323 178.793651l-65.015873-32.507937-65.015873 32.507937 18.041905-66.966349L414.169641 65.015873h65.015873l32.507936-65.015873 32.507937 65.015873h65.015873l-60.139683 46.811429z m-308.825397 62.577778V260.063492a349.915429 349.915429 0 0 0-95.248254 245.76C172.635672 650.15873 256.181069 779.052698 381.661704 828.952381v48.761905a371.273143 371.273143 0 0 1-113.777778-63.227937c-118.328889 85.170794-194.885079-31.532698-194.885079-31.532698 46.811429-43.723175 87.608889-53.963175 120.929524-48.436826a426.975492 426.975492 0 0 1-26.981588-44.535873 0.503873 0.503873 0 0 1-0.162539 0.32508C-0.14401 678.440635 26.187418 527.11619 26.187418 527.11619a166.846984 166.846984 0 0 1 100.449524 29.744762 405.715302 405.715302 0 0 1-3.413333-51.03746 401.32673 401.32673 0 0 1 3.575873-51.03746 176.566857 176.566857 0 0 1-6.826667 28.281905C-19.648772 446.659048 20.986149 300.860952 20.986149 300.860952c103.537778 21.292698 113.452698 100.774603 106.138412 151.812064a355.669333 355.669333 0 0 1 107.76381-212.276826C209.044561 81.594921 337.288371 65.015873 337.288371 65.015873c26.981587 116.378413-26.493968 161.239365-69.404445 176.355556zM91.040752 123.367619c133.770159 58.351746 93.785397 167.578413 70.867301 203.174603-144.172698-71.029841-70.867302-203.174603-70.867301-203.174603zM511.69345 585.142857a113.777778 113.777778 0 0 1 65.015873 207.075556V1024a113.176381 113.176381 0 0 0-48.761905-26.981587V811.398095a102.23746 102.23746 0 0 1-32.507936 0V997.993651a160.329143 160.329143 0 0 0-48.761905 26.006349V792.218413a113.777778 113.777778 0 0 1 65.015873-207.075556z m0 178.793651a65.015873 65.015873 0 1 0-65.015873-65.015873 65.015873 65.015873 0 0 0 65.015873 65.015873z m81.269841-292.571429a16.253968 16.253968 0 0 1 0 32.507937h-162.539682a16.253968 16.253968 0 0 1 0-32.507937h162.539682z m48.761905-32.507936h-260.063492a16.253968 16.253968 0 0 1 0-32.507937h260.063492a16.253968 16.253968 0 0 1 0 32.507937z m48.761905-97.52381h-357.587302a32.60546 32.60546 0 0 0-32.507936 32.507937v260.063492a32.60546 32.60546 0 0 0 32.507936 32.507936h32.507937v48.761905h-48.761905a65.015873 65.015873 0 0 1-65.015873-65.015873V357.587302a65.015873 65.015873 0 0 1 65.015873-65.015873h390.095238a65.015873 65.015873 0 0 1 65.015873 65.015873v292.571428a68.559238 68.559238 0 0 1-70.217143 63.715556l-43.560635 1.300317v-48.761905h32.507937a32.60546 32.60546 0 0 0 32.507936-32.507936V373.84127a32.60546 32.60546 0 0 0-32.507936-32.507937z" fill="#ECC362" p-id="5311"></path></svg>