<?xml version="1.0" standalone="no"?><!DOCTYPE svg PUBLIC "-//W3C//DTD SVG 1.1//EN" "http://www.w3.org/Graphics/SVG/1.1/DTD/svg11.dtd"><svg t="1679903124033" class="icon" viewBox="0 0 1024 1024" version="1.1" xmlns="http://www.w3.org/2000/svg" p-id="3471" xmlns:xlink="http://www.w3.org/1999/xlink" width="400" height="400"><path d="M502.318545 270.801455c205.358545 0 372.363636 167.051636 372.363637 372.363636 0 205.265455-167.005091 372.363636-372.363637 372.363636-205.265455 0-372.363636-167.051636-372.363636-372.363636s167.098182-372.363636 372.363636-372.363636z m192.512 251.671272h-111.429818l-37.236363-108.637091a44.404364 44.404364 0 0 0-43.613091-32.954181c-24.389818 0-39.703273 17.128727-42.961455 30.81309l-37.934545 110.778182H304.872727c-21.922909 0-40.261818 12.101818-46.731636 30.906182-7.447273 21.736727 3.118545 40.029091 14.661818 47.010909l98.816 68.142546-36.584727 106.821818c-7.912727 15.825455-5.864727 37.236364 13.544727 50.688 8.238545 5.678545 17.873455 8.657455 27.927273 8.657454 12.846545 0 22.434909-4.980364 26.996363-7.68l99.048728-68.282181 92.858182 63.860363c3.677091 3.025455 17.035636 12.986182 34.955636 12.986182 9.309091 0 18.292364-2.792727 25.832727-7.959273a41.053091 41.053091 0 0 0 14.289455-51.013818l-37.050182-108.171636 92.16-63.627637c14.848-8.378182 27.322182-27.927273 19.409454-51.013818-6.656-19.362909-25.320727-31.371636-50.036363-31.371636h-0.139637z m179.851637-468.247272v146.944c0 28.997818-12.986182 54.225455-38.632727 74.938181l-55.389091 42.821819a29.463273 29.463273 0 0 1-18.013091 6.144 29.184 29.184 0 0 1-22.155637-10.007273 26.158545 26.158545 0 0 1 4.049455-38.167273l54.923636-42.449454c16.151273-13.032727 18.059636-25.274182 18.059637-33.233455V54.225455h-172.125091V221.556364c0 14.987636-12.8 27.136-28.578909 27.136-15.825455 0-28.578909-12.148364-28.578909-27.136V54.225455H423.842909V221.556364c0 14.987636-12.753455 27.136-28.578909 27.136-15.778909 0-28.578909-12.148364-28.578909-27.136V54.225455H187.159273v146.944c0 6.609455 7.586909 25.181091 17.92 33.140363l55.016727 42.589091c12.241455 9.495273 14.056727 26.530909 4.049455 38.167273a29.602909 29.602909 0 0 1-40.215273 3.909818L169.053091 276.48c-24.436364-18.757818-39.098182-53.015273-39.098182-75.310545V54.225455C129.954909 24.343273 155.554909 0 187.112727 0h630.411637c31.511273 0 57.157818 24.389818 57.157818 54.225455z" fill="#F96A75" p-id="3472"></path></svg>