<?xml version="1.0" standalone="no"?><!DOCTYPE svg PUBLIC "-//W3C//DTD SVG 1.1//EN" "http://www.w3.org/Graphics/SVG/1.1/DTD/svg11.dtd"><svg t="1604646241285" class="icon" viewBox="0 0 1024 1024" version="1.1" xmlns="http://www.w3.org/2000/svg" p-id="742" width="128" height="128" xmlns:xlink="http://www.w3.org/1999/xlink"><defs><style type="text/css"></style></defs><path d="M389.1 660.3l-33.3-10.8 162.7-499.3c3-9.2 12.8-14.2 22-11.2L789 219.1l-10.7 33.3-231.9-74.7-157.3 482.6z" fill="#FC355D" p-id="743"></path><path d="M611.4 927.5H328.5l-59.3-538.7H671z" fill="#00F0D4" p-id="744"></path><path d="M235.1 339.1h470v49.7h-470zM286.1 289.4h368v49.7h-368zM640.6 750.3l25.2-214.9H274.3l25.1 214.9z" fill="#1F53CC" p-id="745"></path><path d="M470.1 642.9m-62.2 0a62.2 62.2 0 1 0 124.4 0 62.2 62.2 0 1 0-124.4 0Z" fill="#FFFFFF" p-id="746"></path><path d="M494.7 782.4c-59.8 0-108.3 48.5-108.3 108.3 0 12.9 2.3 25.3 6.4 36.8h203.9c4.1-11.5 6.4-23.9 6.4-36.8-0.1-59.8-48.6-108.3-108.4-108.3zM284.5 527.5c8.7 2.3 17.9 3.5 27.3 3.5 59.8 0 108.3-48.5 108.3-108.3 0-11.8-1.9-23.1-5.4-33.8H269.2l15.3 138.6zM658.9 497.7l12-108.9H544.8c8.2 58 55.4 103.4 114.1 108.9z" fill="#FECD44" p-id="747"></path><path d="M386.3 811.9m-47 0a47 47 0 1 0 94 0 47 47 0 1 0-94 0Z" fill="#FECD44" p-id="748"></path><path d="M472.6 619.6l6 12.2c0.4 0.8 1.2 1.4 2.1 1.5l13.5 2c2.3 0.3 3.2 3.2 1.6 4.8l-9.8 9.5c-0.7 0.6-1 1.6-0.8 2.5l2.3 13.4c0.4 2.3-2 4.1-4.1 3l-12.1-6.3c-0.8-0.4-1.8-0.4-2.6 0l-12.1 6.3c-2.1 1.1-4.5-0.7-4.1-3l2.3-13.4c0.2-0.9-0.1-1.9-0.8-2.5l-9.8-9.5c-1.7-1.6-0.8-4.5 1.6-4.8l13.5-2c0.9-0.1 1.7-0.7 2.1-1.5l6-12.2c1.2-2.1 4.2-2.1 5.2 0z" fill="#FC355D" p-id="749"></path><path d="M268.4 96.5c2.8 4.9 5.8 9.4 8.8 13.8 3.1 4.3 6.4 8.3 9.8 12.1 6.8 7.5 14.1 14 22 19.4 0.9 0.7 2 1.3 3 2 1 0.6 2 1.3 3 1.9l3 1.8 3.1 1.7c1 0.6 2.1 1.1 3.1 1.6 1.1 0.5 2.1 1 3.2 1.5 2.2 0.9 4.3 1.9 6.5 2.7 4.3 1.8 8.8 3.2 13.3 4.5l6.9 1.8 3.5 0.8 3.8 0.9c6 1.4 12.1 3.1 17.9 5.6 5.9 2.4 11.6 5.6 16.9 9.4l3.9 3c0.7 0.5 1.3 1.1 1.9 1.6l1.8 1.7 1.8 1.7c0.6 0.6 1.1 1.2 1.7 1.8 1.1 1.2 2.3 2.4 3.3 3.7 4.2 5 7.6 10.7 10.2 16.4 2.7 5.8 4.5 11.8 5.6 17.8 1.1 6 1.6 12 1.4 17.9-0.2 5.9-0.9 11.7-2.2 17.3-1.3 5.6-3.1 11-5.8 16.1-1-5.6-2.1-10.9-3.4-16.1-1.4-5.2-2.8-10.1-4.6-14.9-3.5-9.5-7.9-18.1-13.5-25.1-0.3-0.4-0.7-0.9-1-1.3l-1.1-1.2c-0.7-0.8-1.4-1.7-2.2-2.4-0.8-0.8-1.5-1.6-2.3-2.3l-2.4-2.1c-3.3-2.7-6.7-5.2-10.4-7.2-7.4-4.1-15.7-7-24.7-9l-8.4-2c-1.4-0.4-2.9-0.9-4.3-1.3-1.4-0.5-2.9-0.8-4.3-1.4l-4.3-1.6-2.1-0.8-2.1-0.9-4.2-1.9c-1.4-0.6-2.7-1.4-4.1-2.1-2.7-1.3-5.3-3-7.9-4.6-1.3-0.8-2.6-1.7-3.8-2.6-1.3-0.9-2.5-1.7-3.7-2.7-4.9-3.7-9.4-7.9-13.5-12.4-1-1.1-2-2.2-3-3.4l-2.8-3.6c-0.9-1.2-1.7-2.5-2.6-3.7-0.9-1.2-1.6-2.5-2.4-3.8-3.1-5.1-5.7-10.5-7.8-16-2-5.5-3.5-11.2-4.4-16.9-0.6-5.8-1-11.5-0.1-17.2z" fill="#FEE8AA" p-id="750"></path></svg>